{"title":"How.to.Train.Your.Dragon.2010.4K UHD dj29","uid":9686932,"size":5511392686,"categoryP":"video","categoryS":"hd___movies","magnet":"?xt=urn:btih:af809450fd5cddf3bc0cae4b15b1aebb4e713575&amp;dn=How.to.Train.Your.Dragon.2010.4K+UHD+dj29&amp;tr=udp%3A%2F%2Ftracker.openbittorrent.com%3A80&amp;tr=udp%3A%2F%2Fopen.demonii.com%3A1337&amp;tr=udp%3A%2F%2Ftracker.coppersurfer.tk%3A6969&amp;tr=udp%3A%2F%2Fexodus.desync.com%3A6969","seeders":0,"leechers":24,"uploader":"dj29","files":1,"time":1393786122,"description":"General\n\nComplete name                  : How.to.Train.Your.Dragon.2010.4K UHD.mkv\nFormat                         : Matroska\nFormat version                 : Version 4 / Version 2\nFile size                      : 5.13 GiB\nDuration                       : 1h 37mn\nOverall bit rate               : 7 510 Kbps\nEncoded date                   : UTC 2014-03-02 17:13:42\nWriting application            : mkvmerge v6.7.0 ('Back to the Ground') 32bit built on Jan  8 2014 15:03:17\nWriting library                : libebml v1.3.0 + libmatroska v1.4.1\n\nVideo\nID                             : 1\nFormat                         : HEVC\nFormat/Info                    : High Efficiency Video Coding\nCodec ID                       : V_MPEGH/ISO/HEVC\nDuration                       : 1h 37mn\nBit rate                       : 5 851 Kbps\nWidth                          : 3 840 pixels\nHeight                         : 1 632 pixels\nDisplay aspect ratio           : 2.35:1\nFrame rate mode                : Constant\nFrame rate                     : 23.976 fps\nBits/(Pixel*Frame)             : 0.039\nStream size                    : 4.00 GiB (78%)\nLanguage                       : English\nDefault                        : Yes\nForced                         : No\n\nAudio\nID                             : 2\nFormat                         : DTS\nFormat/Info                    : Digital Theater Systems\nMode                           : 16\nFormat settings, Endianness    : Big\nCodec ID                       : A_DTS\nDuration                       : 1h 37mn\nBit rate mode                  : Constant\nBit rate                       : 1 510 Kbps\nChannel(s)                     : 6 channels\nChannel positions              : Front: L C R, Side: L R, LFE\nSampling rate                  : 48.0 KHz\nBit depth                      : 24 bits\nCompression mode               : Lossy\nStream size                    : 1.03 GiB (20%)\nLanguage                       : English\nDefault                        : No\nForced                         : No\n\nMenu\n00:00:00.000                   : :00:00:00.000\n00:08:39.811                   : :00:08:39.811\n00:11:31.983                   : :00:11:31.983\n00:15:11.035                   : :00:15:11.035\n00:21:57.107                   : :00:21:57.107\n00:27:41.702                   : :00:27:41.702\n00:33:14.201                   : :00:33:14.201\n00:39:07.136                   : :00:39:07.136\n00:43:28.731                   : :00:43:28.731\n00:47:08.367                   : :00:47:08.367\n00:49:47.193                   : :00:49:47.193\n00:59:55.801                   : :00:59:55.801\n01:04:47.383                   : :01:04:47.383\n01:09:28.164                   : :01:09:28.164\n01:12:38.187                   : :01:12:38.187\n01:23:26.043                   : :01:23:26.043\n01:28:54.496                   : :01:28:54.496\n","torrent":{"xt":"urn:btih:af809450fd5cddf3bc0cae4b15b1aebb4e713575","amp;dn":"How.to.Train.Your.Dragon.2010.4K+UHD+dj29","amp;tr":["udp%3A%2F%2Ftracker.openbittorrent.com%3A80","udp%3A%2F%2Fopen.demonii.com%3A1337","udp%3A%2F%2Ftracker.coppersurfer.tk%3A6969","udp%3A%2F%2Fexodus.desync.com%3A6969"],"infoHash":"af809450fd5cddf3bc0cae4b15b1aebb4e713575","infoHashBuffer":{"type":"Buffer","data":[175,128,148,80,253,92,221,243,188,12,174,75,21,177,174,187,78,113,53,117]},"announce":[],"urlList":[]}}